/* XPM */
static char *_522402058268[] = {
/* columns rows colors chars-per-pixel */
"64 64 19 1 ",
"  c #440F01",
". c #480F01",
"X c #471001",
"o c #4C1101",
"O c #531201",
"+ c #5B1401",
"@ c #641601",
"# c #691701",
"$ c #661801",
"% c #6C1901",
"& c #751B01",
"* c #7B1C01",
"= c #841E01",
"- c #8A1F01",
"; c #8D2001",
": c #932101",
"> c #9A2301",
", c #A12501",
"< c #AB2702",
/* pixels */
"O==*****&&****=***&*&+;-**********=**=&&**@&:**=***************%",
"%:*&************&=**&+;-*&**&**&****&=*&**$&:=**=**&&******&*&*%",
"%:*****************&&O--**************&&*&+%-&%%%%%%&&*%&&&%&&&$",
"+@oOOoOOOO+++OoOO.++.O&@ooOoXXoXoo.XXXXXoXX@@XXXXXXX .  X    XXX",
"::-===-=;;&@%&;**&=**-;:;;;=-;=**;;;;;;:;;>:;:::::>::-=:::::;;;:",
"-==----==*%*<>::::::::;:;;;;;;;&&:;=;-;=;;;=;----;--=&=:=-=;=;:=",
"***=*=**&&@*:*********&*&*&*&**+%:****&&***&**=******+*:*****=**",
"*********&$&;*********&*=******%@;*************&****&+*-*&*&****",
"*&****&**&@*;*********&==*&***&#@:*****&*********=***@&:*******&",
"*&*****=*&@*;********&&=*&&****$@;=**********&**&****+&:*&&***&*",
"****&&&&&&+&;&%&&&&%&%&&&&&&%%%%@-&&*&*&&****&****&&&+&-&&****&*",
"  XXXXXXXoo%+ooooX  o oXX  XoXOXO%OOOoOOOOooo..OOX O. @#..o..o..",
":=*::::;:::::;::>>:>>::*;:::::::>>:::::::;;;*=>:--:>::>>:>>>:>>:",
"=&&,:;;;;;;;;=;;--==-**#>:-=-;;;----===;;;-=@;>-:-:----======--=",
"&@&:****=*********&**&%@;=****=*****=*=*&**&+;;&&***********&***",
"*@&-****=*&*=*******&&&@-==***=&***********&+;;**=*******=******",
"&@&:**********=*=*&**%%+-=*&*&*&&*&*&&*&&&&%+=;&**************&*",
"&+&:**&***&**********&%$:=*************&=&*&+-;=****************",
"%O*;&&&**&%&%&%%&%%%%%%%-%####%#$%%%%%%%%%%%+=*%%%%%#%%#%%#%%%$%",
"XO%+XXX XXXXXo oo  OooO+@OOoo.ooXooooOoooOoOO&+oOoOXOOXOO oXOoOO",
">:>:;:::;::*->;:::>:;--;-:-:-:-:;;>>>>>:>>;::::::::;:-*:->>>>::>",
"----=-===-*@=-=;---==;;------:--**>--;--:;;;;::;;:;;;=*::---*---",
"&*&**&&**=%+=;**&**&&**&********@&:******&&*=&*******%@-=*=&&=*&",
"*&*&&*****&+-;&==**=&*&**&**=***@*:******&******&****#@--*&*****",
"*******&**&+=;&*******&&==******@&;*******&**********$@;=&****&*",
"**********&+=;*&**&***=*&&******$*:=**=&*&***&*&*&*&*%@:=&&&****",
"%&%%&#%&%*%+=;*&*&&&&&*&&&&&%%&&@&;&&&%&&&&&&&&&*&&**%@***&*&%&*",
"X oOo.Oo+OXo&@ooOoooOooooooOOoooo++    OoXooo Xooo oo O@+OoXoooo",
"-;>::::->::>--:-;-=-&*--;;;:--:--:>-;;-;=-*-->-:;---;--:-==-=;=*",
"::--=-=--===-==*==--&>>---;-;------==;-;==#>-==-=-----=:::>:::-#",
":-&*&&&*********&*&&@-=&&*&&&&=&***%=*=*&&@:=********&&*&**%**%O",
":-**&*==****=***=***$*-*=*=***=****&=****%@:=******=*****&%***&O",
":;****=****&*&&&=&&&%=-&&&&&&&*&*&******&&%:=&=&&*&=*&&&*****=%o",
":;**&&&&**&&&&&&&&&&%&;***===&*&&*=&***%&&%>=&*&*&&=*&&*=*&&=&%O",
"-=%&&*&*&&&&*&***&**%*;=**=***=&***%&&&&*%%*&%%%&&&&&&&&&&&&*&%O",
"=@OOoO.OoO.OO+++O++O+%@o.oo .o oooOoO++++O+%+o+OOOOOoooOoOOoOooO",
">:>:>:>:>::**:--;::=;:;-;:-:>;::=:>>>>::::>>>,>:>:>;:=*:::;>:::>",
"***=&==**=*+=>-=-==--=---:--=-==%=-====**=**===**=*==$&:=-=-===-",
"&***&*&***&+:-****&*&==*=&&&*&&&@*=****&**&*&**&**&&&$%:**&****=",
"&********&&+=-=*=&=**=**&&=&=&**@&=*****&&&=&=*&**&*&$%:=***&&**",
"&*&*&&***&&@--**&&**&&*=***&*&**@*;***&&**&=*&**=*&&&#@:=*&***&*",
"*=&**=***&&+--*&*&&&****&*&*=***@*;*&=*=&*&*&=**&*&&*@%:=&**=***",
"@$+O+$%%$$@+=##@@#@@####@#@@%%%%+&*%%%$#&%#&#&&%$&%&&@#:&%&%$$$$",
"+OO+%@+++O+@%+++++++++oOoOOoOooOo%+OooOOOoOOo+oOOOOOOo$&+O+O+OOO",
"-:-:>;;=-:::::::-::=%=>::>>>>::;>>:>>::::;*;::-::::>;:>>:::::;**",
">-::;;-;:---=-=---=*%,:=-=*=*&===*=****==&@>-----====-=====*==#-",
"-*&***&&**********=@+>=&&&&&&&*=*=**=**=*#@>***&**&=&*=*****=*@*",
"-*=&*=**=*********&@@:=***==*==*=********@@>=****&=&&=&&***&*&+*",
"-=*&=****&*******&&##:=*=*****&*****=*&&&+#>*&****&**=&&=&=&*=+=",
"-***&**&&*&**&=****%+:;**&**&&**&&&&&*&**##>***&&&&*&*&**&&&*&+=",
"*%%%%$%%%%%$$%$%%%%#+-&%%####%&@#$#@@#@#%$@=####%%%%$%$$@#%#%#O%",
"%O+OOOOO+OOoOoOOoOOO+&+O+OO+O+OO@O+++@++++#&@+++++O+++++#@+@@+$&",
">>>>>>>>>:*;::::::--=::::-;;:;---:;-;:;-;;;;-;;::::-:-,>,>>,,>,>",
"*========&@:::;;-;;;-:;;:-;;;-;&=:-;;:;;;--;;;-;----&=:*=*===**=",
"********&@+:=*********&&***&&*&@&-&**&&*&&**&**&*&&&#&-=*&**=&&*",
"&****&&**@@;=*************=&=&*@*-=*****=*=&&=&==&&*%*-*********",
"****&***&#+:-**&******&=*******@*;*&***=****&=&=*&&*##-&**&**&&*",
"*********#@:=***&&=&*******&**&@&-=*=**&&=*=&=&=&&=&##:&&=**=&&=",
"++@O@+@++O+-;&&&&&&%&&&&&&*&&%&@&-&&&&&&&&=&&&&%&&&&#%-###@@OoO#",
"++O++++O++%&OOooOOoOOOOOooOOoo+o$@ooooOOoooo OoOOOOoo@#oOOO++@@@",
"*::::-:::;;:;;;=;=--=*%*-:>::>:;:;:::-:---=&;>:>>>:>:>>:>:>:>>>:",
"%>-=-=--=;-;;;;;-=--=#*,>-=-=*====;==-====#&:-=-=-===--=-----*-&",
"&-**&&&&*&&*&*&&&=&*&o=:=*=****&**&=&=&&=&+&;=***&&*****=&*&*&*%",
"*;=**=&==***&*&&*=**%+:;***&*&&***&**=&***@&:=&*=*=&&**&=**&=&=&"
};
