/* XPM */
static char *_522404910490[] = {
/* columns rows colors chars-per-pixel */
"64 64 13 1 ",
"  c #625C57",
". c #666057",
"X c #65635E",
"o c #6A655B",
"O c #666661",
"+ c #696762",
"@ c #676863",
"# c #6A6A66",
"$ c #6D6E6A",
"% c #706F6B",
"& c #6F706B",
"* c #71716D",
"= c #727371",
/* pixels */
"=====*==%#&&&&&o#$$#%*%#%&*&%%%%%%%%o#*%&**%&*==*&&&**&&&&&&&&o&",
"*===**==%&**&#&@o%%#%%%##%*%%%%%#%%#%#%%&&*&&**=*&&&*&&&&&o&&&oo",
"*===**$*%&&*%o#&%%#%#%%%%**%%#*%%%%%%%%%&&&&o***&&&&*&&&&&&&&&&&",
"&===***%%&=&##&&#%%%%%%%%**%%%%%#*#%%%%%&&&&***=&&&&&&&&&&&&&&o&",
"&=======$$**#o&&%$$%#*%%%%*%%&%%o%%%%%%&***&*=*=&oo&*&**&&&&&&&&",
"*=*==*==$#**%%$$$*%##***#%%%%#%*%%%#%o*****&****&&&&*&**&&o&&&o&",
"&***=*=%%$****$#o*%%$*%%%%%*%%#*&%%%&*****&&****&&&&*&&*&&&&o&&&",
"#&**=*==*$****$#%%###*%%%%%o%#%%%%#%&*****&***=*&&&&**&*&&&&&&&&",
"===*=*********#$%#%#%%%*#%%#%%%%%%#%%%&*&**&****&&&&&&&&&&&&&&@&",
"==*@*==***&&%%%#%%%%%%%*%%%%%%%%%#%#%%&&&*&*****&&&&&&&&=&&&@&&&",
"==*#*=**$&***%*%#%$%%%*%%#%$o%%%#%#%&#&&&*&***=*&&&&&&&&&&&&&&&@",
"==*=***&#&*&%%**%%%$#%%%%#%#%$%%%%%#&#&&&*******&&&&&&&&*&&&o&#&",
"====&==Oo&&&%%*&$$%%&&%%%%%%%%%%#%%o&&&&&***&***&&&&&&&&&&@&&@&&",
"======&@o#=**&&&%$%$*%%%%%%#%%#%#%##&&&&&&**&***&&&&&&&&&&&@&&@&",
"=====#&=$$==&*&&*#o%&=*%%$%%%%%*###%#&&&*&**&&*&&&@&&&&&&&&&&@&&",
"*===&&&&&&===&&&*$o#&&*%#%*#%%%%%&&##&&&&**&&&&&&&&&&&&&&&@&@&&&",
"====$$==$*====*$*$##$*$*%%%#%%%%$$$$$$$$$==$$$$$@&@&&&&&&&o&&&#&",
"====$$==*$*=$==*$*$$$**$#%%#%#%%$$$$$$$=$=$====$&&&&&&&&&&&&#&&&",
"========$$=$##**$*$#$&*$#%%%#%#%$$$$@$=$$$$=$$$=&&&&&&&&&&&@&&&&",
"=====$===$==@X$$$$$#&=*$#&%%%#%%$$$$@$$$$===$===&&&&&&&&o&&&#&#&",
"====$$==$====#$$%##$$***%#%&%%%%#$=@@$$$$$$=$$=$&&&&&&&&&&$&&&#&",
"=====$$=$=$=&&&$%$+#$**%#%%%%##%$#$#$$$=$=$$=$==&@@&&&@&&&##&&#&",
"=====$$=&$=*&&&$%#+o#**###%%%#%%$$$$@=@=$$====@$&&&&&&&&&##&&&$&",
"======@@&*$&&&&$%%$++$**&o&%##%*#$$$$$=$===$$===&&&&&&&&&&#$&&#&",
"====$=$$$$$$&&&$%#+##**%#$###%%%#$$#$$*$=$=$$====$$$$$$$$$$$&$$$",
"==$====$=$$=&&&$$$+++$**$$%$%##%#$#$$**$=$$=$$@==$$@==$=$$$$=$$$",
"==$==$$==$$$&&$$%#+##%%%#%###%#%$$##$$*$$=$=$=$==@$==$$=&$$&=$$$",
"=====$==$$@==$&$####%*%%##%%%#%&#$##$$**$=$==$$==$=$$$@=&&$$==$$",
"=======@$$=$=$$$#++#%%%%##%%##&%#$##$&&&=@=@===$$$$$$=@$$==$$=@=",
"==$=$==@@$$$$==$###$%%%#o%%###%&$*##$&&$$$==$$$=$$$$$==@$$$$$=@=",
"========$$===$=$+##o%%%%%#%###%&#&$#&$&$===$$$=$$$$$=$$@@=$==$$=",
"==$=$====$$$$$$$%#o +%%%#%##%#%&#&#@$$&$@=$=$$$=$$$@$$$=@=$$$=$$",
"==$$**==%+$**%%%%%#oo%%%##%###%%$*##$$$$$$$$$$&&&$$$&$$=$$@=$=@=",
"========%+#**%%%$###%%#######+%##$+##$$$$&$=$=&$&$$$$$$$=$$=$@@=",
"========*$#**$%$##++#%########%%#$##$#$$&&$&$$$$&@$$&&$$$$$$$$@$",
"====$+$=%$**%$%##++++%%#++#+#+$$#$#+@$$$&&$$$$&&&$$@&&$=$$@$@$@=",
"=====+#=$**$$$$$#+++#%##+X#+++%#+#O@#$$$$&&&$$*&&$@&$$$&@$@$$$$$",
"==**=$$=*$*$=%$$##++###+#++#$+$#+#####$$$$&$$$$*&$$$$$&&@$@@@$$$",
"***==*$*$$$$%%$$##+++%##++#+$+$$+#+#+$$#$&$$$$&&&$@$@&&&$$@$@$@$",
"$$*==***&$$$$%%+X#+++%##+++++++$+%+$$$$$$$&$$$$$$$@@&&&$@$@$$@$$",
"=$===$=%$$=$$$$#+#+####%#++O++$+#####%%#$%%$&$$$$$@@$$@$$@$=@@@$",
"=*$=**===$=$=#O$#+++##+##++#++++#%#####%#%&$$$#$$$@@$=$$$$@=$@@$",
"=$*===%%$$$=$$#$++###%##+$+$++$$#%#%#$#$$&$&$##$$$$$===$$$@@$@$@",
"=#$==$==$$=$$$$+++$+%###+$++#+$$%%##%#$#$&#$$#$$$$@@@=$$$$@$$@$$",
"==$=%===$#=$%%%++###%###++++##$$#%#$$#$##&$$$@#*$$@@=$$=$$@$@$@$",
"==$==#=$#$$=*%%%##+#####$+$+##$@#%#%%%###&$$$$#$@$@$$$$$$=@@@@@@",
"==$==$$=$#%%*%%%%#+#%####$#+$#$$%%###%##&&#$##$*=@$@===@@@@@$@@@",
"=$$=$$$$$$$%%%%##+######+##+##+$#%#$%####&$$&#$&@$$@@$$=@$@@@@@@",
"==+=$=$+$$$$=$$$$XX+=+++$+++$$$$@=$@@=$@$$@==@$==$@@$=@$@=@@@@@$",
"==$==$$O#==$$$$$+OO+$$$++$++$+$@@=@$@$$$@@=@$@$@@$@@@==@@@@@@@@@",
"==$====$$#$$+$$@+$$O++++$++$$+$$@=$$=@$@$$==$@==$$$@=$@$@@$@@@@@",
"==$$$===$$$$$$$$OO$++$+$+$+$$+$$@@@@@=$$@$@$$$@==$$@@@=$@$@@@@@@",
"$=+=$=$=$$$$$+$$++++$$++$++$$+=+@@@@@=@@$@=@@@=@$@@$$=@$@@@@$@@@",
"=$$=$=$=$$$$$$$+$+$++$$+++$+$++$@==@@=@=@=@==@@=$@@$@==$=$@@@@@$",
"=$$$$$=$$$$@O#$#$+++$$$+++$$++$+@@@@@@=@@====@=$@@@@$=@@O@@OOO@@",
"$$$=O+$=$$$#O#$++$++++++$+++$O+$@=@$@=@@@=@@=@@$@$@@@==@O=@@O@O@",
"===$$#$=$$=###$@+++X+++=$+$+$O$O@==@@$$O@@=@=@$@@@@@@=@=O@@@@@@@",
"$$$==$$=@#$$=@$@$++++++$$+++OO$$@@@@$=$@@=@=@@@@=@@@==@@@@@OO@@O",
"$#$$@$=$##$$$$#O+$++==++O+$OOO$O@$@$@$$O@@@==@==@@@=@==@@OOOOOO@",
"=$$$O@$=$$##$##@$+++++++$+$++O$$=@@@$$@$@@=@@@@@@@@@@@@@@=OOOOO@",
"$@$$##$$$####++#+$+++$$+++$O$O$O$$O$@$@@@@@@=@@@@@@@==@@@@@OOOOO",
"=O$=%##$$$$#####+++++  ++$$+OO$OO$O$$@@@@=@=@@@=@@@=@@@@@@@@OOOO",
"=+#$+X$$##$#$++@+++X$+X$+OO+O$$OO$@@$@$@@@@@@@=@@@@@@=@@@@OOOOOO",
"=$$=+X$%#$#####O++++$$+O$$++OO$O$O@@@$@@@@=@=@@@@@=@=@=@@=O@OO@@"
};
