/* XPM */
static char *_522404888545[] = {
/* columns rows colors chars-per-pixel */
"64 64 76 1 ",
"  c #080704",
". c #0C0A06",
"X c #0E0B08",
"o c #140D07",
"O c #120E0A",
"+ c #16110C",
"@ c #1A130C",
"# c #1F180D",
"$ c #171310",
"% c #1E1711",
"& c #1F1812",
"* c #22160D",
"= c #2B170C",
"- c #25190E",
"; c #341E0F",
": c #201711",
"> c #241A12",
", c #2B1E14",
"< c #2A1F18",
"1 c #311F12",
"2 c #2E2116",
"3 c #2D2219",
"4 c #332216",
"5 c #3A2516",
"6 c #372917",
"7 c #3C2817",
"8 c #34251A",
"9 c #3A261A",
"0 c #36281D",
"q c #3C2A1C",
"w c #352720",
"e c #372921",
"r c #3D2C22",
"t c #3E3124",
"y c #412715",
"u c #432A17",
"i c #412719",
"p c #432C1D",
"a c #4A2E1D",
"s c #47301F",
"d c #4B311E",
"f c #51331D",
"g c #432E21",
"h c #492F21",
"j c #453123",
"k c #4B3323",
"l c #4D3827",
"z c #453429",
"x c #4B3629",
"c c #4D392A",
"v c #523524",
"b c #5A3623",
"n c #533926",
"m c #5A3A26",
"M c #513629",
"N c #533B2B",
"B c #5A3D2B",
"V c #4D3930",
"C c #543D31",
"Z c #623A26",
"A c #603E29",
"S c #56402F",
"D c #5C412E",
"F c #554030",
"G c #5A4231",
"H c #62422E",
"J c #704429",
"K c #644533",
"L c #694731",
"P c #664834",
"I c #6B4B35",
"U c #66493A",
"Y c #6E4E39",
"T c #724D34",
"R c #6C503E",
"E c #73553C",
/* pixels */
"dknfh;puipi0Ojlpgzrrzte8$%xBjktrxcp9g@,zl4qr040040oqjNkaiiuppp0o",
"fnmbg5ihppu8Xjxqrzteezw3$>zNjkljcckqg$,gk2q8644047.sgkhpg9iqpu0X",
"akmnhippp7p4Xjjqrxewezww$>jcskxgkNjpg%>gk,60440q87X7ghhpq9ipiu,X",
"abmvpippqpp4Xjk0eVtwetw3$>jgtjxjjNj7g$:gj,44227705o5hmhi9iip7p,X",
"ubmfi9ipp9q3Xqgqrctwrr34@>zrjjljjljqi+:xj440,,700;.4fmv95ipp7q4X",
"ddvvp9pgp95,Xqjqrje80e<8$>ztxxjrjlkggO:gs4444,7p75X5pmlq9pappq4X",
"dkkdp59ipi5,X9rqrr084e<3+&zjlljjjksjgO%gs4244,0pq7o5pkk75igpqp4X",
"udpdi589i91,Xrr7e44040<4+>zrkjeqsvqqxO@qq4244,0p05X4dad959hk793+",
"uaaap889p78,X8q98,,440,4+>jejkq07kqqk+%rq830424q85.5ahh59phki94O",
"5phhh999p982X499q,,31><8+3jtskr0qkpqk@&tq840226p55.1ihhiighkp94O",
"ipaap99gg98,X8880,,4,,,8+3zjllq0pjpqk+&zj330220q98.1uhpigggkpq<O",
";phggihkx78,X8e804,14119+>jcBNgqklsjx@%zk48r84qg9, 1ihppihhhpq,X",
"iiggp9hjj02,X8e890>44240+&jcncppdcjjk+$zz38r83qp9, 1igppiphk9q4X",
"5i59gqhlxq4,Xw00rq,45440+2xNNxpsvng7k+%Vl48r83qgq, ,phpgqhjapq,X",
"i;9ggpikj03,Owe88e240480+3cFBlghvdhgp+:zc,qg44qjg4.=9hqgqpkppq8O",
"59ggrq7ks61,Xer8eg244080+3NGch9vnvppp+%jc40g44qgj4.,pcjrpqgppp4O",
"ggjhp99kg04,X7g8wr,48444@<NCcpqMmapgj+>tl1qq180rq8 2pMkpqpkkpp8X",
"Cxhhgqqqg75,Xqgeew,44444OwCBjjpnkpgkk+%ej>09,46q4,.qgkhkrikkjs3O",
"Hcggg9gqp05>Oe99ge>18989@8CBjpqkkpgkk@&qg>8044qr42.qjjhkjpjkss2X",
"INzhh9gpk79>X8r9gr185i89%4mMxpskvslkpo>sk=49,2qj8,XrkjhgpjdBkt3O",
"YGxggepph95,O8p0q9118u89%,mkkggvNdNsi+>jj,50,47g8,.tjxhgpaaNjj,O",
"EGjjg99pkq9,Oeg4758,8a95@<bMkggvlfvspo>jk57024pr8,.jkjlkrkvmxk3+",
"EGzgp8qapi9>O9g5p91,5p95@1Aknahkldddi+>jn47940qsq,.tjjllqkvblj3$",
"EFrq989phg9,Orp5985,8p58+1mnkhalvjksd+>kn9p044qq0,.qjrlkqpvmkz3$",
"RBrq98e7kp0,O0p5985,4q64+*ajkahnndkad@>kkjj444054,XjjgMjjsdBnj3+",
"IBjqq4qgvp9,Oqq84,4,4q0u@-ppppgnmdkda+2Nkjl044542,.jxlnkqjdBlc3+",
"YBjjg8gpxp9<Oqp5444=4q0s+,aqupanmdppu+2lljcq44544-XzcNBcjxkDlN3$",
"UNjgp0ggjp9<Ork0054,9i6u*>kqa9hmvaada+2cltjq06704,.gxBBhjlNDMc3$",
"YNjhp9agjp8<Ogj0qu420sq5@*aqd7pvvaudd+,Nctkq04048,XqjCBpgcnDmcw$",
"Injk9phgjq8,Oerqqp080pp;o=mkapihkapdu+>cNjzt48p442XqzCB9jDBGnj<$",
"Gnknighpjq8,O8e98p080pq5o=Zdppiffuispo>xnqzj80g384X8gCB5kBBBhz<$",
"KNCMqgnggq03O3880qq0qqss+1Zvauqkvh7quo-kktcl32r382XejCn0kHnHMg<O",
"BNNx9pcig99<X8040t00rrqj#,BmdaphfpapiO>nkqNc33q832.8rcNqxBNDlkeO",
"USNcphx69e1<X48,4r800qqk#4Bkapipfhppu+-xjrcz40q222XerccgMckBlgwO",
"UBSlpglpg8<,.<948q080q6p@,bspipaafpppO,xjrcx80q623XerxcglMjBMg<O",
"PBBlpkdsMr1,.<043q43qttp@>vhg9ikhhgapo,xjqcz30q028OegclgnkkBnx1X",
"PnNcqkksnq8=.20440429jqq+*dap07pfddddo>cjqxg89q4>8O0gckqkkxDlg8X",
"PGNBjjskk78>.20540646pqq+*dpp9phkklkdO,jgqjq24q028XrjcnrkklBnk<O",
"RSSSxkpkj95,.2p744448ipq+-fkh95pvfkkx+<jg9je227q38XjlcBgkhnnMk<O",
"KBSBkxpkp99,X3j022022qjqo-fdh99hkvnaj+3jpqrq440042.qhNBphknMnk<O",
"kNlNljqsg79,.8k0400,1qp6o=fdd49hdvvdk@3jgqq044q01,.8gjlpkkvnkp,O",
"njcnNkqkgq5,Xrjq890=24q5#-udd59ghkdkl+2xjq88240881.9ppkpkjnnkp,O",
"nxcllkqzp75,Xrjp8e9>2405@-idd95ppkshx+3znqe0840018X9pgjphjkvkp>o",
"mxcNlkslgq9,Xgcr8ge,4075+*skd97ppgpgx$<zxt00244418X7ggkpahglvg,X",
"mNlBljpkj07,Xzcqqrr,2077+-ufk999pgpqg$3Vkze02344,1.;gqhgpphkkk,X",
"ZGlDlsgnp07,.zSp8g8,,5pq+#sdki9ga9qrg$3zztt033061>.ihgjp9pkgph1X",
"JHlHnpkng97,.jNg0rw,,qgq+*igvpggp7gjj+<ejt0824001=.ivpg97hkppg4X",
"TKnBkpjMp0p,.rcgez8,4req@#kkkqgxkpggg@3rcr08>24081.ang709kkppg<.",
"TLBmlgknp9g1.gh0er8,3e24@*snMgggcjzgz$<tzqe8>4009w.hvg59rhjkpg,X",
"YHBlkkhlpqp,.rp80q8>2q,8@-klkhgzjNzjz$>rjq08>,,411Xghp58phkhpg1X",
"HBBnkkjki0u1.pj44e4,3q30@-kkvgrVjBcjzO&rg884=,,11,.php95ghgp9g3X",
"mlDljgpsi7p1.pj0402,3q30@*dmngrxxGVzh$%8t884*,84,> 5pki5ihup9p4X",
"fvSsdspu97i,.0s488,>3849@@dBnpjclBCgjO:wq08,-,408=.;udp9iauqpp8X",
"ddSfssqs7pi,.4p754,>2q89@*slnljznmCtrO>rp98,-,074>o;uda5iaupkj1.",
"flSlsstsppi>.8p9,,,,,q09@*ukkNjjMBxeqO:rg9,<2,qi5,.5afa9yuusdp1.",
"uffdsjssq7u>.qp4,,,>,809o*ukajqrgBj98O>erq<8247si8.;uaaiiaasii2.",
"uukkhnsdq9u,X50144<>,840+*7jkltqpnje8O:gje,e8,07u1X;yaaiaaappp4X",
"uunbpjpppi9,.451,<,>3920@@pkkxj89kg8rO:zcq<e8,4qp1.;5fa9auap7u4X",
"fpvnkppkpaq4X574,1,>we48+*hnnnr8qkq9r$:VCq3e5,47p1.;5akiipui7i4X",
"fskvdppppkp2Xej4<8<<we34o*knDmjwrn99rO%VC92j9,40p1X5uvdp9paiii4X",
"faffppiapa94Xrjqww<<rr3,O:vnBmq0pni89+:Vl42j040qg1.5ulai7iaup92X",
"adnvk7aspg74Xrjrrr88er8,o*lNlkqqjk588+:Vx48g024pg8.5anhiqpii75,X",
"udndp7ia7qq0Xgjgggwwttw4+:jNxkq0jk940+%xk48j524rd4.6pkhu0iui75,O",
"udnd75upiqr9Ojjgzzwwrt98@>MBksq3jxi59+*jx20j5,47a5X6pkki55ui558X"
};
