/* XPM */
static char *_522401654057[] = {
/* columns rows colors chars-per-pixel */
"64 64 109 2 ",
"   c #3D3413",
".  c #3F3912",
"X  c #433B15",
"o  c #443B1C",
"O  c #4B3E1F",
"+  c #453D22",
"@  c #493D24",
"#  c #473F29",
"$  c #483E28",
"%  c #4D441E",
"&  c #474026",
"*  c #4C4224",
"=  c #4D422B",
"-  c #524426",
";  c #534925",
":  c #53462B",
">  c #554B2C",
",  c #5A4C2D",
"<  c #5E512C",
"1  c #4D4433",
"2  c #4F4639",
"3  c #524634",
"4  c #554A34",
"5  c #5B4D33",
"6  c #514739",
"7  c #554B3B",
"8  c #5B4D3B",
"9  c #5D5135",
"0  c #5E523C",
"q  c #63552E",
"w  c #625434",
"e  c #62553B",
"r  c #65583D",
"t  c #685A3E",
"y  c #554C40",
"u  c #5B4F42",
"i  c #5D5244",
"p  c #5E5248",
"a  c #635644",
"s  c #655944",
"d  c #695C44",
"f  c #64574B",
"g  c #665A4B",
"h  c #6A5D4B",
"j  c #705F4F",
"k  c #665C51",
"l  c #6C5E53",
"z  c #6A5F58",
"x  c #705F53",
"c  c #6E614D",
"v  c #71624D",
"b  c #6D6154",
"n  c #6E6259",
"m  c #736455",
"M  c #756957",
"N  c #796956",
"B  c #73665A",
"V  c #786759",
"C  c #75695C",
"Z  c #7B6C5C",
"A  c #7E715E",
"S  c #766A60",
"D  c #7B6E62",
"F  c #7E7163",
"G  c #7E7269",
"H  c #816E5E",
"J  c #82735F",
"K  c #816E61",
"L  c #837465",
"P  c #897767",
"I  c #867967",
"U  c #897966",
"Y  c #83766A",
"T  c #887669",
"R  c #86796C",
"E  c #8B7C6D",
"W  c #917E6D",
"Q  c #867B71",
"!  c #8B7D72",
"~  c #917E71",
"^  c #8E806F",
"/  c #93816F",
"(  c #8E8174",
")  c #8E8279",
"_  c #938475",
"`  c #988676",
"'  c #968877",
"]  c #998877",
"[  c #93867A",
"{  c #98877B",
"}  c #96897C",
"|  c #9A8C7D",
" . c #A08E7D",
".. c #968B81",
"X. c #9B8D82",
"o. c #9E9183",
"O. c #9D9389",
"+. c #A18F80",
"@. c #A29485",
"#. c #A89787",
"$. c #A39689",
"%. c #A89788",
"&. c #A6998C",
"*. c #AA9B8C",
"=. c #B09F8F",
"-. c #A69A90",
";. c #AA9D91",
":. c #AEA092",
">. c #B0A191",
/* pixels */
"| E N A C A A I A c c F F F A b N L A N v N ' ]  . .^ ^ ( ^ ^ F M Z A ^ M ^ A ^ ^ Z A c b M C A b b } O.| O.$.G L ) _ _ ^ A J I ",
"X.' L I A M A I ^ M g ^ F ^ I M N I I A m A  . .#. .^ '  .' | ^ Z G ^ ^ A J J ^ ^ I ^ c n F R ^ F C o.&.o.&.:.^ ( $.O. ./ J U ^ ",
"o.| L R F A A I ^ M c ^ F I F A A J ^ I N A ' #.*. .^ } | O.o.^ A F ^ ^ J A A U I ^ ^ b C ^ [ o.I M o.O.O.:.&.^ } $.&.@./ J ^ ' ",
"o.| L ^ ^ A J ^ ( Z c ^ ^ ^ ^ F ^ I ^ ) A F  .#.=.#._ _  .&.$._ G ^ ^ ' ^ ^ J ' ^ ^ ' A Z ' X.o.^ C | -.&.:.:.^ } &.*.&.| U ' | ",
"X.o.I _ R I I _ | A b ' ^ ^ ^ G ^ ( ' ' I I  .*.>.*.^ } $.&.$.X.I ^ ^ ' ^ _ I _ ^ ^ ' F I o. .O...G ( :.-.;.:.) X.-.;.*.| L ] ] ",
"X.o.( } ^ F ^ ' O.F b ' ^ ^ ' ^ ) [ | ' I I  .*.=.*.E } #.&.@.o.R ( ' ' ^ _ I ] ) ' ' ^ ^ | $.&.-.^ ( -.*.-.:.) +.$.&.$.| J | | ",
"o.o._ ( ( I ( | O.J M | ' ' ' ^ ' | o.} ^ L @.=.>.*.R ' $.$.@.| I | | | ' ' I  .| | } ^ R ..*.:.-.G G o.&.;.;.R X.X.&.$.| L ] | ",
"..| ^ ^ ( ^ _ | | ^ C o.o.} } ^ } o.X.o.^ F  .=.=.=.( } $.&.$.o.^ | | ' | ' F  .| o.| ^ ^ ) O.;.O.^ ( o.o.o.O.I | o.@.X.{ A | @.",
"| | ^ ^ ) ^ '  .| ^ A O.| | | ( o...o.o.( F  .*.#.*.( [ &.*.&.$.^ O.' | | ' I O.$. . .( ^ } o.o.&.Y ) $.X.X.@.D } $.X.X.{ D X.@.",
"| | ^ ^ ^ ' ' | o.A Z | | | | ( ..o.@.o.) E @.#.@.#.E { &.;.&.@.G | | | | ' I O.&.&.O.( ' &.O.$.-.Y ! @.X.X.$.Y [ X.$.X.X.D X.@.",
"} | ^ ' ) ' ' | o.F A O.| o.o.) X.$.&.$.[ ( @.#.*.*.E { &.;.&.$.^ | | | | ' I | *.&.&.^ ' &.$.&.$.Y ( @.X.X.$.Q { O.X.X.{ L X.@.",
"} ) ' ) ^ ' ' O.o.I D O.| | | ) X.$.$.$.[ ( #.#.=.*.! { &.;.;.$.^  .| | | ^ I | *.&.$.' | *.| | X.Y Q { { X.X.R | X.| | { L X.$.",
"| ) | ' I } ' | o.I F $.| | o.) $.&.&.&.} ~ %.*.*.#.E _ $.&.;.&.Q o.| | $.' A  .*.*.$.' ' $.&.| o.R Q } } | | ! X.| { | { F X.@.",
"o.' | ) ^ O.| | o.R I O.} | | ( O.&.&.&.} E @.*.*.#.E W @.$.&.$.^ $. .' | ' A &.*.:.O.| ' |  .| O.R _ @.} | X.E ` X.| | _ D | @.",
" .| ' ^ Q | | | o.( F ..| | | Q O.&.&.&.| ! @.&.*.%.L E @.@.&.$.^ o.| ' | ' A  .*.&. .( ' | ' ' $.Q } $.} X.X.Y [ ` | | | Y | #.",
"&.| ^ ^ I | | | o.G F O.o.o.} G O.-.&.&.X.! @.#.*.@.Y _ $.$.*.X.F | ' |  .' I O.&.|  .' ( o.} O.$.Q ..$.{ { X.Q { ` | | | L }  .",
"|  .' ^ F | O.'  .I G O.o.o._ I O.-.-.-...R | o.*.| L _ @.&.X.B b ' ' | | I A | *.'  .) ( | | @.&.R } @.....+.~ ..X.{ +.X.S V X.",
"$.| ' ^ D | | O.} R I o.o.| ( F ..&.:.O.[ Q o.&.&.&.E _ $.&.$.D n ' ' ' ' F Z | &.o. .^ ( |  .#.*.( ! | X.+...T  .{ X.+.X.S l X.",
"O.| ' I A | } O.[ E F [ o.| ( C ..:.-.-.O.( &.&.*.&.! _ %.;.&.@.^ ^ ^ ' ' ^ A | o. . .' ^ | @.;.&.[ _ _ ..+.+.R +.X.X...X.! ` +.",
"|  .' I D | | $.| ( E $.$.o.( C ..&.-.-.$.[ &.&.*.&.R ( &.$.&.%.G ^ ^ ' | ^ A O.&. .@.} ) ' | *.$.! [ [ ..X...K +.{ ..X.X.! ..$.",
"| } ' ^ D | &.&.' ^ R $.&.o.[ C ..O.-.O.O.) &.-.;.*.( X.$.@.$.$.^ } ( | | ^ F o.O.#.@.' } |  .*.@.{ _ ..X.X...Y { | ..X.X.! X.$.",
"| ' } ^ F O.:. .| _ ( &.*.$.o.S ..-.-.-.X.) -.:.-.-.! ..&.$.$.$.G } ' |  .^ A | o.O.O.| _ | @.@.o._ } } X.....R { X.{ @.X.T ~ $.",
"} | o.^ I &.*. .| [ ( #.*.*.@.F o.-.-.-.X.) :.&.O.$.Q X.$.@.$.&.^ | | | o.( A  .&.o. .' ( @.@.&.o.( } ..@.X.X.Y ~ X.~ X.X.! | +.",
"| } | ^ I *.*.&.o.( ( &.=.#.&.L O.&.&.-...Q &.&.$.$.E ! @.$.&.$.R o.| | o.' F o.#.O.o.' ! &.*.@.o.[ | ..X.+.X.Y { +.{ { { ~ ~  .",
"| ' | ' ^ &.#.#.o.( ( ;.*.#.*.L X.&.&.O.) ( $.&.&.$.Y ( @.| $.$.R ..| O.$.| ( O.*.@.| _ _ $.@.@.@.~ ..X.X.+. .K { | { +.~ ~ ~ { ",
"O.| | ' ^ #.*.&.&.^ ^ *.@.*.#.R o.-.&.-.} ! O.&.&.&.L ( $.X.X.O.G o.o.O.O.| ( | #.*.*.| _ @.*.*.$.~ ..X.X.X.+.K ~ | | ....T ~ { ",
"O.| | ) ^ O.*.#.$.' ' ;.$.*.#.! $.*.&.-...! @.&.&.&.Y ` $.X.X.$.R } | | | } ^ | *.*.o.| _ X.&.*.$.Q ~ X.X.O.X.H ~  .+.{ ~ T ~ ] ",
"&.| | } I &.*.$.$._ _ *.#.$.#.E o.&.&.&...E @.*.*.&.E _ $.X.$.%.I } | | ' | ) o.@.@. ._ ! $.*.$.+.! ..X.X.X.} H W  .X.{ [ T ~ ] ",
"&.|  .} I &.*.#.$.' } #.=.#.*.( O.&.*.>.| ^ $.;.*.*.Q _ X.X.*.%.I | | ' | ' ) | | #.&.} ( | @.| @.! ..X...X.{ H W ] X.X.{ R ~ [ ",
"#.|  . .I $.*.#.#.} _ *.=.&.&.R o.&.=.>.} Q -.:.;.&.Y _ $.@.*.%.I | | ' o.| ^ O.| o.&.[ E } | | @.~ X.X.X.{ _ V W { X.@.{ Y W ` ",
"#.|  .O.I O.&.*.&.' [ ;.*.=.&.I | *.=.>...Q -.-.-.$.Y } &.*.%.@.R O.&.#.$.) Q O.X.@.@.( ) } @.| +.~ { ..@.{ E V ~ ] { | _ E ~ ` ",
" .'  . .R ..$.*.@._ [ ;.&.*.&.R | &.#.;.| ( &.O.X.O.Q X.*.*.%.@.^ O.*.&.$.' ^ *.o.@.o.! ) } | @.X.! ~ ..X.X.T Z { @.| | { T ~ { ",
"@.` @.o.E | @.*.&.[ [ &.&.&.*.R { #.@.*.[ ! &.X._ X.Y { *.%.%.+.G O.*.&.@.' ^ O.o. .| ( ) X.| $.@.^ ( ..X...R D { X.X.| ` T W | ",
"#.@.| | ! | @.*.&.) ( &.&.;.:.( ' #.*.*.} ! ;.O.X.O.Q } +.$.*.$.G o.@.@.| ' ^ &.o.| _ Q ) o.@.&.#.^ ( X...{ ~ K ~ | +.] ~ D L ~ ",
"@.@.| o.( o.&.*.#.( ( :.&.&.*.( | *.*.*...! ;.-.$.-.! } X.@.;.$.G o.O.$.O.) Q o.o. .{ Y [ o.@.&.@.E ( X.X.{ X.K ` ] `  ._ D L _ ",
"@.| | X.! X.@.*.&.| ( :.&.;.&.! | *.&.&.} Q -.$.$.O.! } { O.*.$.^ O.o.#.&.[ R o.@.@.X.R _ @.o.$.| R ! X...{ X.S ~ ~ W ` _ D ~ { ",
"| | |  .( o.$.*.*.| ( :.&.-.-.( | *.*.*.[ Q $.$.-.$.Q _ X...%.$.R @.$.O.$.[ R o.} o.o.! _ &.@.@.o.E ! X.O.X.X.S E / W ] W H _ _ ",
"| @.| X.Q o.$.&.*.| ( *.;.&.-.) X.&.&.#...Q $.$.$.O.E ! ..+.+...R $.O.o.[ ( Q o. .o.| E _ &.#.o.@.! ! _ X.$.+.S U W E ] W B W ` ",
"] X.X.X.R o.&.&.&.} ( *.-.-.&.) o.&.&.#...Q -.$.O.&.T Y X.X.+...! o.o.} ) Q R o. .@.@.( _ &.#.@.| E _ ....X.X.x P U E ` E V E ~ ",
"| X...{ F o.&.&.&.} ( &.-.&.;._ ..o.@.o.[ Q $.$.$.&.Y D ~ ......Q o.| [ ( ( I } @.$.@.! [ @.*.@.| Y _ X.X.X...B U / W _ T K ~ W ",
"| | X.! D X.&.;.&.[ Y &.&.&.;.Q X.$.O.$...Q -.O.O.O.Q Y ..+...~ Q o.| [ ! ) Q X.$.%.+.! [ @.*.X...T ~ X.X.X.~ S U W W ~ T K ~ W ",
"+.] { _ D X.&.&.;.} R ;.&.$.O.G ..O.$.O.) ! ;.O.O.O.Q ! X.O.X.X.Q @.o.) ) ! Q @.{ | X.! { | @.@.X.Q ....X...~ V L U U W Y Z W ~ ",
"@.| | ! D X.$.&.*.} Y &.-.&.o.F ..$.-.O...! -.O.O.O.Q ! X...X.~ Y O.o.! ! ! Q +.| { | ! ( | X.{ ~ Y { ..+...T x P U U W L D E { ",
"@.X.| Q S { $.&.&.} Y @.$.&.O.F ..O.O.X.) Q $.O.O.$.Q ! ..~ X...G ....! ) ! G X.X.{ { Y ~ X.X._ ~ Y { ....X.Q S U E W U T K W _ ",
"+.X.| _ n ..$.&.&.{ F } ..O...G ..O.O...) ! -.O.O.O.Q ) ..X.$...G ) ! ! ! ! Y X.| | { Y _ $.$.} { Y ! ..X...! x T U W W T D W _ ",
"X.X.X.} z [ $.&.*.| F R ) O.) S ..O.O...) Q O.O.O.O.Q Q ....O.O.z S [ ! Q Q Y { { | { Y _ O.+._ ! D ! X.X.~ ! x P U T R x Z ~ _ ",
" .X.X.) C X.&.&.*.} F Q ) o.G z ..........G ......O.Q Y ..+.$...Y Q ) ! ! Q G +.X.{ ~ Y { @.o._ ~ S ! ......! m L U W T # B _ _ ",
"| | } ) z } &.$.&...F ( [ ....S G ........G ....O...Y T ....+...Q ..! ! ! G S X.$.{ _ L ( } o.} ) S Q { @...! m K U ! ~ V D _ ` ",
"+.` | _ b ) O.&.O.' D ) ) } } B Q ..O...) G ) O.....G G ..X.X.! Q [ ! ! Q G S { @.{ ~ K ! X.$.+...K ~ ..+...! B T T ~ ~ x V ~ { ",
"@.@.@.{ k ..O.&.&.} S ( [ ) ) n Q O.....Q G ) ....) S F { X.X.Q G ) [ ) ! K S [ X...[ Y ~ ..+.$.X.z Q ~ ~ +.T z T ~ ~ ~ H x ~ { ",
"_ { @.~ b ..O.o.O...S Q ( ( ) b G ......) G ....} } n S ~ X.@.{ S ) [ [ [ G S [ ....{ Y ! +.%.$.~ f ! ~ ~ ~ T f Y ~ ~ T x L X.| ",
"L N Z V p [ o.X.o.o.C ^ ( ! Q n S ) ) ) ) S ..) ( ) B D ..X.&.` S ) [ ) ) S z ! ..~ ..S K +.;.%.~ p T ~ ~ ~ T f x T K K x K ~ T ",
"h a a g i n Q | O.o.n R Q R G k G ) ) ..Q n } ' } ( D D ) | %.X.S ~ { ! ~ Y z ~ ~ ~ ~ x x +.@.~ T p P W ~ W K 8 x H H H j h m m ",
"a a i a 2 i D | } G c G R Y F p G ....) G b ) ( ( _ D C ! ! ~ ! z Q ) ! ~ D f Q ~ ~ ~ k d T T T m u V K T K h 6 d f j x f a d f ",
"s 0 5 0 1 y b F F b u A G F D p D ) ) ) F b ^ F I ^ b n ! E R K x S Y Y D l p V x V Z u u x j x f 7 h N N v 0 3 a a d d a 8 e e ",
"v e w t 1 7 i b c c 7 C C D C p n ( ) ) G p C M M N 7 p V Y L D p V V z f p # h h d h 6 $ a j a a 3 8 a j s 0 3 a a d a 8 8 a d ",
"c r w r & 2 y s i s 4 b M M k 2 g R Q Q M y c c c h 7 6 h Z C m u x x x f a # k j d f $ 8 a a p 8 : 8 e t H a 3 f d d a 8 5 t d ",
"r 0 w 0 & 1 & y 0 0 1 g s s 0 1 7 M M n k 2 k d d h 7 2 a h l l 7 p j a a e 4 f a t H @ 3 f h a 8 : 8 e t j 8 5 a a d 5 : : 5 e ",
"9 0 s 9 & & > 4 4 9 & 9 9 9 9 1 1 i s s k 2 s s d h 7 1 y i g a # f f e e e : w q q t , 5 a d H f : e t t t 5 : w 8 e 5 : - 5 d ",
"> r 0 4 & & & > > > + > > 9 9 & 1 s s c k 1 s s d h 8 1 7 0 s 0 $ f d r e 5 * , q q q , 5 e e j d 5 t e j a : - , , 5 w - - w d ",
"w r < % & & & > ; ; & > > 9 > & 1 c 0 c s = e s d d 4 1 e 8 a 0 @ 8 a e e > * 9 q , q - - 5 q t w - e H j t - - , , , , , - w d ",
"0 r % X X . X > ; % X ; > > > & > r 0 c s $ 0 d c t 4 : e e e e @ 4 e e 9 : * > q w , O - , , , - - w , t t : - , q , , - - , a ",
"s 0 X X . . X % > & X ; < > ; ; > 0 0 r 0 * 5 t s t 4 = e w e e @ 4 e 5 9 = @ ; - e w @ O , , , : - 5 , e e 3 - , 5 5 : - - , 5 ",
"w ; . X . . X % > % X ; 9 > ; % > c r 0 9 * > t d t : = 5 e w 5 @ : 9 9 5 = $ : - 5 5 O O q 8 : e 8 e e e e 3 - 5 5 8 3 - : , , "
};
